<svg width="26" height="26" viewBox="0 0 26 26" fill="none" xmlns="http://www.w3.org/2000/svg">
<path d="M11.5556 5.77778H20.2222V8.66667H11.5556V5.77778ZM11.5556 11.5556H20.2222V14.4444H11.5556V11.5556ZM11.5556 17.3333H20.2222V20.2222H11.5556V17.3333ZM5.77778 5.77778H8.66667V8.66667H5.77778V5.77778ZM5.77778 11.5556H8.66667V14.4444H5.77778V11.5556ZM5.77778 17.3333H8.66667V20.2222H5.77778V17.3333ZM24.7 0H1.3C0.577778 0 0 0.577778 0 1.3V24.7C0 25.2778 0.577778 26 1.3 26H24.7C25.2778 26 26 25.2778 26 24.7V1.3C26 0.577778 25.2778 0 24.7 0ZM23.1111 23.1111H2.88889V2.88889H23.1111V23.1111Z" fill="#F09E56"/>
</svg>
