<svg width="26" height="26" viewBox="0 0 26 26" fill="none" xmlns="http://www.w3.org/2000/svg">
<path d="M25.3018 11.3087C25.301 11.3082 25.3004 11.3074 25.2998 11.3068L14.6928 0.701218C14.2406 0.248947 13.6395 0 13.0001 0C12.3608 0 11.7597 0.248947 11.3073 0.701218L0.705878 11.3014C0.702307 11.305 0.698538 11.3087 0.695165 11.3123C-0.233273 12.246 -0.231686 13.7609 0.699728 14.6922C1.12526 15.1179 1.68709 15.3643 2.28799 15.3903C2.31259 15.3927 2.33719 15.3939 2.36199 15.3939H2.78455V23.1987C2.78455 24.7434 4.04151 26 5.58633 26H9.73613C10.1569 26 10.4979 25.6588 10.4979 25.2383V19.1191C10.4979 18.4144 11.0715 17.8411 11.7763 17.8411H14.224C14.9288 17.8411 15.5022 18.4144 15.5022 19.1191V25.2383C15.5022 25.6588 15.8432 26 16.264 26H20.4138C21.9588 26 23.2156 24.7434 23.2156 23.1987V15.3939H23.6076C24.2468 15.3939 24.8479 15.1449 25.3004 14.6924C26.2328 13.7597 26.2332 12.2421 25.3018 11.3087ZM24.2229 13.6153C24.0585 13.7798 23.8399 13.8704 23.6076 13.8704H22.4538C22.033 13.8704 21.692 14.2114 21.692 14.6321V23.1987C21.692 23.9033 21.1186 24.4766 20.4138 24.4766H17.0258V19.1191C17.0258 17.5745 15.769 16.3176 14.224 16.3176H11.7763C10.2313 16.3176 8.97434 17.5745 8.97434 19.1191V24.4766H5.58633C4.88167 24.4766 4.30814 23.9033 4.30814 23.1987V14.6321C4.30814 14.2114 3.96712 13.8704 3.54634 13.8704H2.41238C2.40048 13.8696 2.38877 13.869 2.37667 13.8688C2.14972 13.8649 1.93685 13.7748 1.77735 13.6151C1.43811 13.2759 1.43811 12.7239 1.77735 12.3845C1.77755 12.3845 1.77755 12.3843 1.77775 12.3841L1.77834 12.3835L12.385 1.77834C12.5492 1.61389 12.7676 1.52344 13.0001 1.52344C13.2325 1.52344 13.4509 1.61389 13.6153 1.77834L24.2196 12.3813C24.2212 12.3829 24.2229 12.3845 24.2245 12.3861C24.562 12.7259 24.5614 13.2767 24.2229 13.6153Z" fill="black"/>
</svg>
